<svg version="1.1" xmlns="http://www.w3.org/2000/svg" xmlns:xlink="http://www.w3.org/1999/xlink" width="256.000000pt" height="256.000000pt" viewBox="0,0,256,256"><g fill="#000000" fill-rule="nonzero" stroke="none" stroke-width="1" stroke-linecap="butt" stroke-linejoin="miter" stroke-miterlimit="10" stroke-dasharray="" stroke-dashoffset="0" font-family="none" font-weight="none" font-size="none" text-anchor="none" style="mix-blend-mode: normal"><g transform="translate(-0.31875,-0.49366)"><g transform="translate(0,256) scale(0.1,-0.1)"><path d="M108,2442l-40,-38l1,-999c1,-1099 -4,-1017 64,-1069c32,-25 36,-25 222,-27c105,0 209,-3 233,-6c41,-5 42,-6 42,-42c1,-45 22,-106 47,-133c10,-11 36,-29 58,-39c38,-18 85,-19 846,-19h806l33,23c18,12 43,35 54,50c21,28 21,35 24,775c1,411 0,757 -3,769c-3,12 -17,35 -31,53c-33,38 -194,151 -255,178c-26,11 -50,25 -53,31c-9,14 -43,14 -51,0c-19,-30 8,-61 128,-140c67,-45 134,-93 150,-107l27,-26v-737c0,-711 -1,-738 -19,-760l-19,-24h-801h-800l-23,23l-23,23l-3,794l-2,794l67,-19c38,-11 106,-29 153,-41c133,-33 128,-27 160,-192c29,-151 53,-176 172,-181l73,-2v-145c1,-135 -1,-148 -26,-204c-38,-85 -49,-131 -49,-208c0,-118 56,-245 142,-323c23,-20 71,-50 107,-67c60,-29 75,-31 172,-32c102,0 108,1 181,38c89,44 158,112 203,203c25,51 30,72 33,164c4,114 -10,170 -63,248c-24,35 -25,44 -25,173c0,190 -27,270 -116,348c-66,58 -117,76 -219,76c-71,0 -100,-5 -137,-22c-54,-24 -133,-94 -154,-135c-13,-26 -19,-28 -74,-28c-64,0 -105,14 -116,39c-3,9 -14,57 -24,108c-10,50 -25,105 -34,121c-22,42 -70,80 -119,92c-23,6 -91,24 -152,41c-60,17 -118,33 -127,36c-15,3 -18,16 -18,69v64h-35c-30,0 -35,-4 -35,-22c-1,-38 -17,0 -24,57c-14,103 -50,171 -104,199c-15,7 -101,35 -192,61c-91,27 -169,52 -174,56c-5,5 -4,15 4,24c11,14 98,15 825,13l813,-3l38,-30c64,-53 74,-82 74,-227v-128h46h46l-4,138c-4,154 -10,172 -81,249c-83,90 -6,83 -947,83h-831zM350,2208c80,-22 152,-46 162,-54c10,-10 23,-52 33,-107c21,-122 32,-154 61,-180l24,-23l-2,-724l-3,-725l-217,-3c-207,-2 -219,-1 -238,18c-20,20 -20,30 -20,935v915l28,-6c15,-4 92,-24 172,-46zM1788,1514c60,-30 104,-79 121,-133c16,-55 15,-221 -2,-221c-7,0 -17,4 -22,9c-6,5 -38,19 -72,30c-107,36 -233,24 -317,-30c-26,-16 -49,-29 -51,-29c-10,0 -5,176 6,215c40,149 203,226 337,159zM1830,1098c64,-29 122,-83 150,-137c31,-61 44,-159 30,-228c-34,-164 -157,-268 -320,-268c-65,0 -85,5 -142,33c-120,59 -180,159 -182,302c-1,74 3,92 27,142c34,70 109,140 180,168c72,28 181,23 257,-12z"></path><path d="M1636,969c-34,-27 -35,-71 -1,-105c21,-21 25,-34 25,-84c0,-57 -1,-60 -25,-60c-27,0 -48,-30 -39,-54c5,-13 23,-16 96,-16h89l-3,33c-2,27 -8,33 -30,35c-27,3 -28,5 -28,64c0,52 3,63 25,80c33,26 33,71 0,103c-30,31 -73,32 -109,4z"></path><path d="M770,2093c-15,-11 -20,-23 -18,-46l3,-32h310h310l3,22c2,14 -6,32 -21,47l-24,24h-270c-226,0 -275,-2 -293,-15z"></path></g></g></g></svg>