<svg version="1.1" xmlns="http://www.w3.org/2000/svg" xmlns:xlink="http://www.w3.org/1999/xlink" width="1024.000000pt" height="1024.000000pt" viewBox="0,0,256,256"><g fill="#000000" fill-rule="nonzero" stroke="none" stroke-width="1" stroke-linecap="butt" stroke-linejoin="miter" stroke-miterlimit="10" stroke-dasharray="" stroke-dashoffset="0" font-family="none" font-weight="none" font-size="none" text-anchor="none" style="mix-blend-mode: normal"><g transform="translate(0.1254,-0.08276) scale(0.25,0.25)"><g transform="translate(0,1024) scale(0.1,-0.1)"><path d="M4756,10219c-247,-16 -636,-83 -915,-159c-326,-88 -621,-200 -936,-355c-375,-185 -663,-369 -997,-638c-729,-586 -1309,-1426 -1609,-2329c-175,-527 -256,-1002 -266,-1563c-7,-371 16,-660 83,-1030c116,-642 374,-1283 738,-1830c362,-543 737,-936 1266,-1326c483,-357 1045,-632 1636,-803c254,-73 601,-141 864,-168c167,-17 783,-17 955,0c825,82 1630,367 2335,827c112,73 370,267 501,377c250,209 563,539 760,801c517,689 830,1421 963,2257c74,462 84,914 30,1415c-58,537 -228,1127 -472,1635c-337,701 -855,1341 -1478,1826c-282,219 -523,368 -879,544c-434,214 -776,334 -1225,429c-182,39 -453,78 -630,91c-166,11 -534,11 -724,-1zM5650,9701c528,-74 1015,-223 1470,-451c644,-322 1167,-745 1575,-1270c578,-745 899,-1553 996,-2505c16,-155 16,-602 0,-775c-83,-929 -418,-1764 -996,-2490c-257,-323 -590,-625 -995,-902c-329,-225 -722,-428 -1054,-544c-143,-50 -465,-142 -510,-146l-37,-3l1,777c1,847 -1,819 59,924c68,117 190,218 330,271c50,20 91,27 171,31c134,6 197,-7 313,-66c76,-37 107,-61 182,-136c138,-139 190,-260 202,-468l6,-107l-35,-39c-108,-120 -35,-312 118,-312c97,0 175,77 176,172c1,62 -10,88 -58,138l-34,36l-9,159c-8,137 -14,172 -38,242c-50,138 -140,263 -273,378c-230,199 -597,241 -884,100c-134,-66 -282,-213 -349,-349c-74,-148 -70,-100 -74,-993c-4,-711 -6,-802 -19,-807c-39,-15 -377,-56 -544,-67c-511,-32 -1119,53 -1640,229c-251,85 -339,121 -575,237c-400,196 -707,400 -1055,699c-382,328 -688,701 -949,1156c-309,538 -503,1146 -578,1810c-24,214 -24,715 0,921c72,630 254,1225 525,1714c262,476 495,789 841,1136c286,285 569,503 926,713c519,306 1120,507 1745,586c225,28 216,28 580,25c281,-2 360,-6 490,-24z"></path><path d="M4959,9486c-76,-29 -126,-61 -174,-111c-74,-76 -99,-135 -131,-301c-3,-18 -17,-24 -86,-39c-46,-9 -118,-33 -162,-52c-67,-30 -85,-34 -120,-28c-55,10 -112,8 -136,-5c-42,-22 -62,-97 -39,-143c31,-61 114,-77 163,-32c15,14 37,27 49,29c123,25 279,61 314,71l42,13l27,-45c94,-161 280,-255 445,-225c160,30 251,98 344,257c10,17 24,15 222,-29c116,-25 217,-46 224,-46c7,0 27,-11 45,-25c23,-18 45,-25 76,-25c106,1 146,121 64,192c-17,15 -34,18 -86,15c-36,-2 -77,0 -90,5c-20,8 -277,74 -392,102c-23,5 -28,12 -28,39c-1,49 -44,161 -84,216c-51,69 -99,109 -176,145c-58,27 -77,31 -170,33c-70,2 -117,-2 -141,-11zM5199,9287c79,-39 141,-139 141,-228c0,-94 -69,-199 -155,-235c-52,-22 -143,-21 -191,2c-148,71 -191,275 -82,399c83,94 179,114 287,62z"></path><path d="M4295,9395c-33,-32 -34,-83 -2,-113c76,-71 184,38 111,112c-34,34 -77,34 -109,1z"></path><path d="M5741,9403c-12,-10 -24,-35 -28,-55c-5,-32 -1,-41 25,-68c45,-44 98,-36 127,21c42,80 -55,158 -124,102z"></path><path d="M6132,9297c-30,-32 -29,-87 1,-115c75,-70 185,41 112,113c-32,33 -83,34 -113,2z"></path><path d="M3953,9295c-44,-31 -38,-98 11,-130c18,-12 29,-13 55,-4c55,19 69,82 26,124c-28,28 -61,32 -92,10z"></path><path d="M3285,9206c-74,-18 -123,-45 -153,-83c-20,-24 -42,-37 -82,-49c-206,-58 -332,-290 -291,-537c7,-42 5,-53 -19,-90c-46,-71 -91,-105 -185,-142c-49,-19 -117,-54 -152,-76c-125,-82 -227,-222 -240,-330c-5,-41 -9,-49 -22,-43c-183,82 -352,73 -492,-24c-121,-83 -128,-220 -14,-237c48,-8 85,8 113,47c44,61 184,82 272,42c139,-65 213,-245 164,-400c-45,-145 -218,-225 -357,-165c-35,15 -52,31 -78,75c-27,46 -40,57 -67,62c-54,10 -93,-6 -115,-49c-17,-34 -18,-43 -7,-83c29,-101 165,-203 302,-225c76,-13 140,-7 225,22c35,11 67,18 71,14c4,-3 7,-79 7,-168c0,-187 -10,-220 -78,-265c-36,-24 -50,-27 -126,-27c-116,1 -139,13 -161,87c-33,109 -100,192 -201,251c-118,68 -280,76 -402,20c-91,-43 -165,-116 -212,-208c-34,-66 -38,-84 -43,-167c-8,-152 32,-253 139,-353c127,-119 333,-145 499,-63c78,38 165,124 199,196c13,28 29,53 36,55c6,3 31,1 56,-4c168,-32 330,22 419,140c65,87 71,118 72,390v242l46,31c106,73 280,261 402,435c34,48 43,70 43,103c0,94 -105,136 -170,68c-17,-18 -42,-51 -56,-73c-48,-77 -129,-181 -194,-248c-36,-37 -66,-66 -67,-65c0,2 1,141 4,310l5,306l30,44c39,54 108,106 182,137c124,50 180,82 240,136l62,56l36,-40c91,-100 246,-165 395,-165c245,1 458,150 542,380c26,72 36,234 18,317c-30,146 -150,302 -280,365c-121,59 -214,73 -315,48zM3498,8980c72,-36 125,-92 161,-169c22,-48 26,-69 26,-151c-1,-83 -4,-102 -28,-151c-34,-70 -109,-142 -185,-177c-48,-22 -71,-26 -152,-26c-85,-1 -101,2 -155,28c-174,85 -255,279 -180,431c32,67 71,98 149,120c39,12 73,30 101,56c58,53 92,69 151,69c37,0 68,-8 112,-30zM1488,6651c121,-62 172,-246 96,-353c-87,-124 -263,-144 -368,-42c-55,53 -76,103 -76,177c0,149 111,254 256,243c28,-2 70,-14 92,-25z"></path><path d="M6635,9159c-161,-80 -192,-292 -59,-409c51,-44 93,-60 161,-60c183,0 305,184 229,345c-25,55 -81,110 -132,131c-49,21 -151,17 -199,-7zM6774,8979c31,-25 34,-61 6,-89c-40,-40 -100,-12 -100,46c0,20 41,64 60,64c4,0 19,-9 34,-21z"></path><path d="M7275,8908c-35,-27 -35,-79 1,-107c15,-12 35,-21 45,-21c30,0 72,43 72,74c0,34 -18,53 -61,65c-25,8 -36,6 -57,-11z"></path><path d="M4410,8588c-41,-44 -10,-118 50,-118c64,0 93,80 44,119c-34,27 -68,27 -94,-1z"></path><path d="M5717,8593c-45,-51 -17,-123 48,-123c37,0 75,37 75,72c0,52 -88,88 -123,51z"></path><path d="M4147,8580c-53,-42 -24,-130 42,-130c34,0 71,39 71,75c0,57 -68,90 -113,55z"></path><path d="M5986,8568c-50,-71 37,-154 103,-100c28,22 31,75 6,102c-26,29 -89,27 -109,-2z"></path><path d="M2325,8556c-53,-23 -72,-99 -35,-136c52,-52 126,-45 154,15c19,40 13,75 -17,103c-30,27 -66,33 -102,18z"></path><path d="M6727,8540c-14,-11 -28,-33 -32,-48c-9,-42 28,-147 84,-241c130,-216 287,-352 509,-442l82,-33l20,-67c36,-119 131,-199 237,-199c59,0 83,20 83,68c0,53 -19,81 -63,93c-103,28 -123,140 -38,212c58,49 154,32 202,-34c20,-28 21,-39 16,-109c-7,-85 6,-141 54,-230c23,-43 24,-56 29,-302c5,-254 5,-257 29,-282c27,-28 76,-35 113,-15c41,22 48,66 48,281c0,259 -8,312 -60,412c-40,77 -40,79 -34,156c6,73 5,82 -23,142c-51,108 -124,166 -233,186c-106,19 -223,-18 -286,-92l-34,-39l-68,26c-210,83 -393,264 -468,464c-14,38 -35,78 -47,91c-27,29 -84,30 -120,2z"></path><path d="M7206,8517c-38,-38 -36,-97 3,-129c28,-24 36,-25 232,-31c223,-7 285,-15 400,-53c272,-89 504,-361 540,-632c6,-48 9,-405 7,-942l-3,-865l-327,-3l-327,-2l-5,52c-3,29 -8,98 -11,152c-17,291 -138,669 -318,991c-238,426 -599,774 -1072,1033c-725,398 -1578,415 -2335,46c-476,-231 -842,-546 -1092,-939c-255,-400 -377,-773 -404,-1227l-6,-108h-800h-800l-29,-29c-48,-48 -32,-133 31,-166c26,-13 493,-15 4220,-15c4590,0 4241,-5 4274,59c25,47 20,88 -13,122l-29,29h-155c-152,0 -155,0 -161,23c-9,34 -9,34 36,41c54,9 68,21 68,62c0,54 -25,64 -160,63c-166,-2 -174,-5 -178,-56c-3,-35 1,-44 21,-58c13,-8 35,-14 48,-13c21,3 24,-1 24,-27v-30l-152,-3l-152,-3l-4,923c-3,1018 0,962 -68,1126c-55,133 -132,244 -246,353c-132,127 -251,192 -448,246c-81,23 -114,26 -337,30l-247,5zM5510,8156c138,-24 242,-51 375,-97c76,-26 288,-128 297,-143c31,-48 136,-441 167,-625c19,-113 49,-457 40,-466c-2,-2 -91,-5 -196,-8c-219,-4 -203,-12 -176,87c25,93 23,268 -6,375c-44,165 -114,285 -240,412c-130,131 -286,217 -464,255c-87,19 -278,22 -364,5c-140,-26 -279,-86 -381,-163c-83,-63 -107,-86 -172,-168c-159,-199 -230,-430 -200,-649c7,-53 16,-108 20,-122l8,-26l-207,-5c-113,-3 -208,-3 -211,-1c-7,6 -2,150 11,283c19,212 65,410 159,692l42,126l102,47c216,101 387,153 636,194c177,29 183,29 410,26c167,-3 232,-8 350,-29zM3717,7688c-57,-140 -119,-491 -133,-740l-7,-128h-256c-141,0 -286,-3 -323,-7c-82,-7 -83,-5 -32,92c149,288 396,578 659,773c60,45 111,79 113,77c2,-2 -7,-32 -21,-67zM6524,7723c132,-95 327,-276 439,-408c85,-100 200,-271 267,-398l51,-97l-238,-2c-131,-1 -282,-2 -335,-2l-98,-1v30c0,64 -21,306 -36,415c-15,117 -59,313 -94,428c-11,35 -20,66 -20,68c0,10 16,2 64,-33zM5285,7585c105,-36 160,-70 236,-145c88,-87 132,-167 156,-288c27,-133 -4,-283 -86,-410c-31,-48 -439,-487 -470,-506c-13,-8 -421,410 -475,487c-159,224 -137,524 54,718c71,73 160,123 270,154c71,20 244,14 315,-10zM3586,6606c1,0 9,-70 19,-154c16,-145 60,-365 104,-514l20,-68l-27,-1c-15,0 -245,0 -512,1l-485,1l3,127c2,70 12,177 23,239c17,102 78,323 99,362c7,15 47,16 382,13c205,-2 374,-5 374,-6zM4364,6533c74,-99 179,-228 383,-470c89,-106 159,-195 154,-197c-4,-3 -215,-5 -468,-5h-461l-14,22c-46,75 -124,430 -143,652l-7,80l248,-2l249,-1zM6382,6560c-9,-148 -50,-377 -98,-545c-43,-153 -37,-145 -108,-146c-143,-4 -866,-4 -866,0c0,2 37,47 83,100c142,164 359,431 437,539l75,102l240,-2l240,-3zM7390,6566c52,-122 105,-365 122,-558c6,-71 8,-132 4,-136c-9,-8 -1046,-10 -1051,-1c-2,3 9,46 25,95c41,129 77,311 97,488l17,156h383h384z"></path><path d="M5858,7873c-26,-7 -50,-66 -39,-96c23,-59 104,-77 140,-31c21,27 27,70 13,90c-24,34 -69,49 -114,37z"></path><path d="M4200,7788c-26,-28 -26,-68 1,-102c42,-54 129,-21 129,49c0,43 -32,75 -75,75c-22,0 -41,-8 -55,-22z"></path><path d="M3982,7147c-45,-48 -11,-127 55,-127c31,0 73,42 73,73c0,67 -83,102 -128,54z"></path><path d="M3196,7078c-28,-44 -29,-73 -3,-103c45,-53 137,-19 137,51c0,62 -102,101 -134,52z"></path><path d="M6782,7170c-23,-22 -29,-68 -12,-100c16,-29 69,-43 97,-25c41,27 55,57 42,94c-19,53 -85,70 -127,31z"></path><path d="M4897,7286c-49,-18 -64,-32 -90,-80c-28,-55 -29,-146 -1,-200c23,-42 290,-316 310,-316c19,0 288,283 308,325c32,66 32,117 2,179c-58,117 -183,138 -271,44l-41,-43l-28,33c-52,59 -124,82 -189,58z"></path><path d="M3057,6350c-62,-49 -14,-139 70,-131c7,0 21,11 33,23c62,66 -31,164 -103,108z"></path><path d="M2960,6117c-39,-20 -54,-59 -37,-100c20,-48 65,-65 106,-41c17,10 35,30 41,44c27,65 -47,130 -110,97z"></path><path d="M3331,6103c-11,-10 -24,-32 -27,-50c-5,-27 -1,-37 25,-64c25,-25 37,-30 59,-25c63,15 85,97 36,135c-33,26 -65,27 -93,4z"></path><path d="M4107,6342c-25,-27 -22,-87 5,-112c32,-30 71,-26 102,11c30,36 31,40 11,78c-23,45 -87,57 -118,23z"></path><path d="M4170,6113c-42,-17 -53,-85 -20,-121c58,-62 155,10 116,86c-20,39 -54,51 -96,35z"></path><path d="M5974,6346c-58,-49 -25,-140 50,-140c64,0 100,58 71,115c-15,28 -49,49 -80,49c-8,0 -26,-11 -41,-24z"></path><path d="M5830,6108c-28,-30 -27,-88 3,-116c37,-35 69,-37 105,-7c64,54 30,145 -54,145c-21,0 -41,-8 -54,-22z"></path><path d="M7081,6354c-87,-73 17,-193 113,-131c67,44 31,157 -50,157c-20,0 -44,-10 -63,-26z"></path><path d="M6784,6110c-11,-4 -26,-22 -33,-38c-25,-60 31,-121 90,-100c54,19 66,82 24,123c-25,26 -45,30 -81,15z"></path><path d="M7171,6094c-35,-45 -26,-95 20,-119c40,-21 57,-19 90,14c36,36 37,73 4,106c-34,35 -86,34 -114,-1z"></path><path d="M6392,8417c-47,-50 -15,-127 51,-127c38,0 62,21 72,62c6,22 1,33 -23,58c-36,36 -71,38 -100,7z"></path><path d="M2036,8268c-23,-32 -20,-71 7,-96c30,-28 68,-28 95,1c46,48 17,117 -48,117c-29,0 -43,-6 -54,-22z"></path><path d="M2735,8060c-68,-27 -60,-113 12,-134c25,-8 68,26 78,62c5,17 -1,30 -24,52c-32,32 -35,33 -66,20z"></path><path d="M2962,7889c-50,-19 -53,-95 -6,-125c23,-16 28,-16 59,-1c83,39 33,157 -53,126z"></path><path d="M7486,7348c-24,-34 -20,-73 10,-97c15,-12 34,-21 44,-21c31,0 70,39 70,70c0,62 -90,96 -124,48z"></path><path d="M1272,7270c-30,-28 -36,-62 -18,-98c25,-49 72,-56 111,-17c35,34 34,86 -1,114c-34,26 -64,27 -92,1z"></path><path d="M8850,7240c-26,-26 -26,-81 0,-105c26,-24 76,-23 100,1c46,47 15,124 -50,124c-17,0 -39,-9 -50,-20z"></path><path d="M7677,7142c-36,-39 -15,-100 40,-116c51,-16 97,79 57,118c-21,22 -77,20 -97,-2z"></path><path d="M8916,6954c-12,-11 -16,-36 -16,-90v-74h-45c-49,0 -65,-16 -65,-67c0,-42 11,-51 60,-55l45,-3v-60v-60l-40,-3c-52,-5 -65,-17 -65,-63c0,-44 18,-59 74,-59h36v-60v-60h-39c-48,0 -71,-21 -71,-63c0,-59 6,-62 159,-65c164,-4 181,1 181,56c0,61 -15,73 -97,81c-9,1 -13,19 -13,56v55h39c48,0 71,21 71,64c0,40 -15,56 -54,56c-50,0 -57,11 -54,71l3,54l40,3c51,4 65,17 65,56c0,45 -13,59 -62,65l-43,6l-3,75c-2,56 -7,78 -19,88c-23,17 -68,15 -87,-4z"></path><path d="M7936,6679c-26,-30 -26,-31 -26,-218c0,-108 5,-201 11,-219c21,-62 99,-82 144,-38c33,33 37,67 33,274c-3,175 -4,181 -27,206c-37,39 -100,37 -135,-5z"></path><path d="M2202,6203c-21,-8 -43,-61 -36,-87c15,-62 89,-80 131,-32c30,35 29,71 -2,101c-23,24 -61,31 -93,18z"></path><path d="M4333,5250c-12,-5 -29,-20 -38,-34c-15,-23 -17,-86 -16,-656c1,-686 -1,-662 57,-688c32,-15 166,-15 198,0c57,25 55,6 57,654c1,330 1,616 0,636c-1,23 -10,47 -27,67c-25,31 -27,31 -117,30c-51,0 -102,-4 -114,-9z"></path><path d="M5013,5250c-12,-5 -29,-23 -38,-40c-14,-27 -15,-91 -13,-558l3,-527l32,-60c64,-124 178,-196 321,-203c136,-7 202,40 202,144c0,73 -40,118 -117,134c-42,9 -66,21 -90,45l-33,33v482c0,525 0,523 -57,549c-28,13 -179,14 -210,1z"></path><path d="M1548,5221l-33,-29v-629c0,-590 1,-630 18,-655c10,-14 32,-31 49,-37c43,-15 152,-14 191,2c61,26 62,30 67,266l5,216h265c254,0 267,1 300,22c93,58 94,191 2,261l-35,27l-248,-3c-137,-2 -258,-1 -269,3c-19,6 -20,15 -20,130v124l368,3c402,3 400,3 447,66c29,40 32,128 6,180c-41,81 -12,77 -577,80l-503,3z"></path><path d="M2983,4940c-12,-5 -30,-21 -40,-36c-16,-25 -18,-58 -21,-312c-2,-170 1,-313 8,-356c22,-145 115,-273 247,-338c55,-27 79,-33 156,-36c113,-6 182,10 249,54c51,35 67,34 68,-4c0,-7 15,-21 33,-32c60,-37 197,-24 236,24c9,11 12,130 12,503l-1,488l-30,28c-28,25 -36,27 -121,27c-94,0 -139,-14 -156,-49c-4,-9 -10,-149 -13,-311c-6,-334 -4,-328 -89,-378c-85,-50 -194,-33 -246,36c-19,25 -20,47 -25,335l-5,309l-33,29c-31,27 -37,29 -120,28c-48,0 -97,-4 -109,-9z"></path><path d="M6145,4943c-67,-15 -155,-49 -199,-77c-107,-69 -199,-184 -240,-301c-23,-66 -32,-214 -16,-288c29,-141 148,-297 276,-365c228,-119 516,-74 686,107c135,143 185,319 143,500c-58,245 -298,433 -548,430c-45,-1 -91,-3 -102,-6zM6338,4624c94,-38 162,-135 162,-230c0,-232 -293,-335 -448,-159c-105,119 -75,290 65,372c73,43 144,48 221,17z"></path><path d="M7142,4937c-52,-30 -51,-20 -53,-523c-1,-508 -1,-512 52,-540c38,-19 162,-18 204,2c67,32 66,26 63,546l-3,468l-28,27c-25,26 -34,28 -120,31c-62,1 -99,-2 -115,-11z"></path><path d="M7783,4932c-12,-9 -27,-30 -32,-45c-7,-18 -11,-188 -11,-478c0,-496 1,-503 61,-534c24,-13 52,-16 121,-13c87,3 91,4 119,36l29,32v268c0,149 5,283 10,303c20,73 133,148 199,132c42,-9 92,-53 112,-97c17,-37 19,-69 19,-316c0,-257 1,-277 20,-308c27,-44 60,-55 159,-50c80,4 86,6 113,36l28,32v313c0,250 -3,325 -16,372c-39,151 -158,271 -308,311c-105,28 -233,12 -309,-40c-37,-25 -47,-24 -47,4c0,9 -10,26 -23,38c-21,20 -34,22 -123,22c-78,0 -104,-4 -121,-18z"></path><path d="M1214,3260c-60,-24 -72,-109 -25,-162l29,-33l220,-2c121,-2 222,-3 225,-3c3,0 -3,-26 -14,-57c-11,-32 -27,-98 -35,-148c-53,-303 112,-651 374,-788c137,-72 142,-72 576,-69l389,3l41,-40c50,-49 100,-71 161,-71c164,0 280,173 216,322c-37,86 -115,138 -206,138c-94,0 -173,-48 -216,-132l-19,-38h-346c-382,0 -422,5 -523,62c-119,68 -220,214 -257,373c-30,127 -4,312 58,413l20,32l1241,-2l1242,-3l5,-85c8,-125 41,-178 156,-253l49,-32l2,-75c1,-41 2,-94 2,-118c2,-88 98,-136 156,-77c23,22 25,32 25,109c0,47 3,87 8,89c4,3 45,-3 92,-13c46,-11 113,-22 147,-26l63,-6v-428v-429l-27,-21c-52,-40 -73,-88 -73,-166c0,-63 3,-76 29,-111c44,-60 87,-83 158,-83c104,0 182,72 191,176c6,69 -16,128 -63,174l-35,34v427v427l63,7c34,4 87,13 118,21c99,25 97,26 98,-68c0,-68 4,-85 22,-104c40,-43 112,-36 146,14c15,22 18,47 18,135v109l67,46c116,82 148,139 148,265v67h700c678,0 702,-1 739,-20c52,-26 75,-57 89,-122c29,-129 156,-197 283,-153c76,27 119,80 139,171c6,27 21,60 33,73c42,45 74,51 270,51h184l26,-77c70,-212 60,-380 -34,-572c-53,-107 -162,-222 -259,-272c-63,-33 -69,-34 -184,-35c-117,-1 -120,-2 -143,-28c-43,-51 -21,-123 47,-150c51,-20 157,-21 235,-1c187,48 368,203 467,400c105,207 127,421 68,649c-11,44 -18,81 -16,83c2,3 94,4 203,4c234,-2 258,5 283,76c13,38 12,46 -3,78c-9,19 -28,40 -43,45c-32,13 -7770,12 -7800,0zM5717,3008c-8,-64 -35,-94 -128,-143c-186,-98 -477,-119 -731,-55c-81,21 -187,68 -225,99c-36,30 -73,92 -73,122v29h581h582zM7700,3012c47,-38 -5,-111 -56,-77c-42,27 -26,93 22,95c7,0 22,-8 34,-18zM3194,2151c24,-27 17,-62 -17,-81c-26,-14 -29,-14 -47,10c-26,33 -25,55 2,74c29,21 41,20 62,-3z"></path><path d="M1373,2909c-52,-19 -57,-92 -8,-121c37,-21 70,-9 94,34c14,25 14,29 -5,54c-24,33 -52,44 -81,33z"></path><path d="M8086,2884c-39,-39 -28,-108 20,-120c59,-15 105,30 91,88c-11,42 -81,63 -111,32z"></path><path d="M2220,2843c-30,-16 -68,-45 -84,-66c-27,-33 -31,-48 -34,-111c-6,-109 31,-171 128,-215c63,-29 124,-27 189,5c92,46 146,152 123,241c-40,148 -187,214 -322,146zM2354,2684c20,-19 20,-34 0,-62c-18,-26 -46,-28 -68,-6c-31,30 -9,84 34,84c10,0 26,-7 34,-16z"></path><path d="M2784,2760c-30,-12 -54,-49 -54,-83c0,-35 24,-82 45,-91c29,-11 855,-7 876,4c23,13 49,61 49,91c0,11 -15,36 -34,55l-34,34l-414,-1c-227,0 -423,-4 -434,-9z"></path><path d="M3954,2756c-59,-27 -69,-115 -17,-156c22,-17 41,-20 144,-20c109,0 120,2 145,23c38,33 38,98 0,135c-25,25 -33,27 -134,30c-74,1 -116,-2 -138,-12z"></path><path d="M7371,2684c-12,-15 -21,-33 -21,-41c0,-20 55,-73 75,-73c22,0 65,45 65,68c0,33 -38,72 -70,72c-19,0 -36,-9 -49,-26z"></path><path d="M7784,2641c-18,-11 -39,-30 -48,-42c-20,-30 -21,-101 0,-140c16,-31 66,-59 105,-59c36,0 90,32 110,64c68,112 -57,244 -167,177z"></path><path d="M8095,2565c-14,-13 -25,-33 -25,-45c0,-28 43,-70 73,-70c30,0 67,39 67,71c0,33 -34,69 -66,69c-14,0 -36,-11 -49,-25z"></path><path d="M6637,2379c-207,-29 -361,-251 -318,-460c23,-110 81,-188 198,-265c81,-53 82,-54 94,-111c14,-63 53,-113 88,-113c39,0 81,50 90,107c10,63 17,73 88,113c74,42 141,112 178,185c27,55 30,69 30,160c0,88 -3,107 -27,157c-31,66 -105,149 -163,183c-67,40 -166,56 -258,44zM6778,2176c39,-21 89,-75 106,-118c21,-49 20,-94 -3,-143c-57,-124 -219,-154 -315,-58c-120,119 -33,331 137,333c26,0 60,-6 75,-14z"></path><path d="M3955,2302c-179,-53 -319,-180 -407,-368c-42,-91 -58,-154 -65,-271c-14,-233 58,-427 211,-571c77,-72 145,-112 251,-147c72,-24 90,-27 190,-23c138,6 217,31 320,100c214,143 335,429 295,699c-38,262 -202,479 -428,566c-90,35 -275,42 -367,15zM4264,2090c66,-32 159,-120 200,-190c31,-52 66,-164 55,-174c-2,-3 -186,-6 -408,-8l-403,-3l6,44c13,97 96,229 182,291c102,73 262,90 368,40zM4527,1517c9,-10 -27,-129 -55,-181c-38,-71 -110,-139 -189,-178c-63,-31 -75,-33 -163,-32c-116,0 -176,24 -263,104c-66,60 -122,164 -133,246l-6,52l402,-3c221,-2 404,-5 407,-8z"></path><path d="M4144,1952c-19,-13 -44,-56 -44,-75c0,-25 54,-77 80,-77c30,0 80,53 80,85c0,50 -76,95 -116,67z"></path><path d="M4083,1388c-28,-32 -34,-53 -22,-87c22,-62 93,-80 134,-35c51,55 18,144 -54,144c-26,0 -44,-7 -58,-22z"></path><path d="M4794,2252c-16,-10 -34,-48 -34,-71c0,-24 45,-61 75,-61c28,0 65,40 65,71c0,49 -67,88 -106,61z"></path><path d="M5555,2230c-44,-48 -9,-130 55,-130c62,0 94,63 60,118c-17,27 -26,32 -58,32c-26,0 -45,-7 -57,-20z"></path><path d="M5580,1947c-35,-18 -50,-53 -38,-88c18,-52 79,-66 116,-26c54,58 -8,149 -78,114z"></path><path d="M2614,1771c-46,-28 -64,-59 -64,-112c0,-105 100,-171 190,-124c129,66 83,255 -62,255c-18,0 -47,-9 -64,-19z"></path><path d="M5567,1640c-55,-43 -23,-130 48,-130c61,0 95,69 57,117c-26,34 -71,39 -105,13z"></path><path d="M3004,1466c-27,-27 -34,-42 -34,-74c0,-47 34,-95 78,-109c66,-23 142,35 142,108c0,51 -13,75 -50,94c-50,26 -97,20 -136,-19z"></path><path d="M7045,1486c-83,-37 -97,-143 -29,-207c20,-19 37,-24 76,-24c44,0 53,4 84,37c28,31 34,45 34,83c0,85 -90,145 -165,111z"></path><path d="M6306,1408c-23,-33 -20,-75 9,-103c30,-30 54,-31 89,-4c33,26 36,79 6,109c-28,28 -84,27 -104,-2z"></path><path d="M3296,1258c-24,-34 -20,-73 10,-97c33,-26 55,-26 85,-2c30,24 32,87 4,107c-30,22 -81,18 -99,-8z"></path><path d="M5515,1205c-35,-35 -33,-76 6,-109c17,-14 37,-26 44,-26c28,0 75,51 75,81c0,37 -40,79 -75,79c-14,0 -37,-11 -50,-25z"></path><path d="M6564,1182c-46,-36 -55,-85 -27,-133c28,-48 102,-57 148,-19c26,21 38,78 25,111c-23,54 -103,77 -146,41z"></path><path d="M5065,1152c-52,-24 -102,-82 -111,-127c-12,-66 0,-141 30,-184c59,-85 184,-110 273,-55c137,85 145,257 17,347c-55,39 -149,47 -209,19z"></path><path d="M4694,960c-48,-19 -52,-105 -5,-129c49,-27 111,9 111,63c-1,48 -60,86 -106,66z"></path></g></g></g></svg>